<?xml version="1.0" encoding="utf-8"?>
<!-- Generator: Adobe Illustrator 23.0.4, SVG Export Plug-In . SVG Version: 6.00 Build 0)  -->
<svg version="1.1" id="Layer_1" xmlns="http://www.w3.org/2000/svg" xmlns:xlink="http://www.w3.org/1999/xlink" x="0px" y="0px"
	 viewBox="0 0 1800 660" style="enable-background:new 0 0 1800 660;" xml:space="preserve">
<style type="text/css">
	.st0{fill:#0082C8;}
	.st1{opacity:0.2;fill:url(#SVGID_1_);}
	.st2{opacity:0.33;fill:url(#SVGID_2_);}
</style>
<g>
	<rect x="0" y="0" class="st0" width="1800" height="660"/>
</g>
<linearGradient id="SVGID_1_" gradientUnits="userSpaceOnUse" x1="1682.392" y1="338.75" x2="1003.2872" y2="338.75" gradientTransform="matrix(-1 0 0 1 1687 0)">
	<stop  offset="0" style="stop-color:#FFFFFF"/>
	<stop  offset="1" style="stop-color:#FFFFFF;stop-opacity:0"/>
</linearGradient>
<path class="st1" d="M0.2,402v3.8c16.3,9.3,16.3,9.3,16.3,9.3c-1,2.8-0.9,5.7,0.5,8.1c1.4,2.4,3.9,3.9,6.4,4.4
	c-0.1,68.8-0.1,68.8-0.1,68.8c-0.9,0.2-2,0.5-2.7,0.9c-4.6,2.7-6.1,8.4-3.5,13c2.5,4.4,8.3,5.9,12.9,3.3c4.4-2.5,5.9-8.3,3.4-12.6
	c-1.5-2.7-4-4.2-6.6-4.6c-0.2-68.6-0.2-68.6-0.2-68.6c1.3-0.1,2.2-0.6,3.2-1.2c3.9-2.2,5.6-7.1,4.1-11.4c59-34,59-34,59-34
	c2.7,3.6,7.8,4.6,11.7,2.3c1.2-0.7,2.2-1.3,2.6-2.2c59.1,34,59.1,34,59.1,34c-0.7,2.7-0.8,5.3,0.6,7.8c1.4,2.4,3.9,3.9,6.4,4.4
	c-0.1,68.8-0.1,68.8-0.1,68.8c-0.9,0.2-1.8,0.7-2.8,1.3c-3.9,2.2-5.6,7.1-3.8,11.3c-59,34-59,34-59,34c-3-3.5-8.1-4.4-11.9-2.2
	c-4.6,2.7-6.1,8.4-3.6,12.8c1.4,2.4,3.9,3.9,6.4,4.4c-0.1,68.8-0.1,68.8-0.1,68.8c-0.9,0.2-2,0.5-2.9,1.1c-4.4,2.5-5.9,8.3-3.2,12.9
	c2.5,4.4,8.3,5.9,12.6,3.4c4.6-2.7,6.1-8.4,3.6-12.8c-1.5-2.7-4-4.2-6.8-4.5c0.1-68.8,0.1-68.8,0.1-68.8c0.9-0.2,2-0.5,3.2-1.2
	c3.9-2.2,5.5-6.7,4.1-10.8c59.2-34.2,59.2-34.2,59.2-34.2c2.8,3.2,7.5,4.1,11.4,1.8c1.2-0.7,1.8-1.4,2.6-2.2
	c59.2,34.2,59.2,34.2,59.2,34.2c-0.9,2.4-0.9,5.1,0.5,7.5c2.7,4.6,8.4,6.2,13,3.5c3.9-2.2,5.4-7,4-11c59-34,59-34,59-34
	c3.1,3.1,7.8,3.9,11.7,1.7c1-0.6,1.9-1.1,2.6-2.2c59,34.4,59,34.4,59,34.4c-0.9,2.4-0.6,5.2,0.8,7.6c2.5,4.4,8.3,5.9,12.6,3.4
	c3.9-2.2,5.6-7.1,4.2-11.2c59-34,59-34,59-34c2.8,3.2,7.9,4.2,11.8,1.9c1-0.6,1.6-1.2,2.1-1.9c59.6,34.3,59.6,34.3,59.6,34.3
	c-0.9,2.4-0.6,5.2,0.8,7.6c1.4,2.4,3.6,4.1,6.2,4.5c-0.1,68.8-0.1,68.8-0.1,68.8c-0.9,0.2-2,0.5-2.7,0.9c-4.6,2.7-6.1,8.4-3.6,12.8
	c2.7,4.6,8.4,6.2,13,3.5c1-0.6,1.8-1.4,2.4-2c13,7.5,23.2,13.3,31.1,17.9h6.7c-36.3-21-36.3-21-36.3-21c0.9-2.4,0.8-5.3-0.6-7.8
	c-1.4-2.4-3.9-3.9-6.4-4.4c-0.2-68.6-0.2-68.6-0.2-68.6c1.1-0.3,2.2-0.6,3.2-1.2c3.9-2.2,5.6-7.1,4.1-11.4c59-34,59-34,59-34
	c2.7,3.6,7.8,4.6,11.7,2.3c1.2-0.7,2-1.5,2.6-2.2c59.6,34.3,59.6,34.3,59.6,34.3c-1.1,2.6-1,5.5,0.4,7.9c2.7,4.6,8.4,6.2,13,3.5
	c4.4-2.5,5.9-8.3,3.2-12.9c-2.5-4.4-8.3-5.9-12.6-3.4c-1,0.6-1.8,1.4-2.4,2c-59.4-34.5-59.4-34.5-59.4-34.5c0.6-2.3,0.6-5.2-0.8-7.6
	c-1.4-2.4-3.9-3.9-6.2-4.5c-0.2-68.6-0.2-68.6-0.2-68.6c1.1-0.3,2-0.5,2.9-1.1c3.9-2.2,5.4-7,4.2-11.2c59-34,59-34,59-34
	c2.8,3.2,7.7,4.3,11.6,2.1c4.6-2.7,6.1-8.4,3.6-12.8c-2.7-4.6-8.4-6.2-13-3.5c-3.9,2.2-5.6,7.1-3.8,11.3c-59,34-59,34-59,34
	c-3-3.5-8.1-4.4-11.9-2.2c-1,0.6-1.8,1.4-2.6,2.2c-59.1-34-59.1-34-59.1-34c0.9-2.4,0.8-5.3-0.6-7.8c-1.4-2.4-3.9-3.9-6.6-4.6
	c0-68.4,0-68.4,0-68.4c1.1-0.3,2.2-0.6,3.2-1.2c3.9-2.2,5.6-7.1,4.1-11.4c59-34,59-34,59-34c2.7,3.6,7.8,4.6,11.7,2.3
	c1.2-0.7,2-1.5,2.6-2.2c59.5,34.1,59.5,34.1,59.5,34.1c-1,2.8-0.9,5.7,0.5,8.1c2.7,4.6,8.3,5.9,12.9,3.3c4.4-2.5,6-8,3.4-12.6
	c-2.5-4.4-8.3-5.9-12.6-3.4c-1,0.6-1.8,1.4-2.4,2c-59.5-34.7-59.5-34.7-59.5-34.7c0.6-2.3,0.6-5.2-0.7-7.4c-1.5-2.7-4-4.2-6.6-4.6
	c-0.2-68.6-0.2-68.6-0.2-68.6c1.1-0.3,2.2-0.6,3.2-1.2c4.4-2.5,5.9-8.3,3.4-12.6c-2.5-4.4-8.3-5.9-12.6-3.4
	c-4.6,2.7-5.9,8.3-3.4,12.6c1.4,2.4,3.6,4.1,6.2,4.5c-0.1,68.8-0.1,68.8-0.1,68.8c-0.9,0.2-2,0.5-2.9,1.1c-3.9,2.2-5.4,7-4,11
	c-59,34-59,34-59,34c-3.1-3.1-7.9-4.2-11.8-1.9c-1,0.6-1.6,1.2-2.4,2c-59.4-34.5-59.4-34.5-59.4-34.5c0.9-2.4,0.6-5.2-0.8-7.6
	c-2.5-4.4-8.3-5.9-12.6-3.4c-3.9,2.2-5.7,6.9-4.4,10.9c-59,34-59,34-59,34c-2.8-3.2-7.8-3.9-11.7-1.7c-1,0.6-1.8,1.4-2.4,2
	c-59.1-34-59.1-34-59.1-34c0.9-2.4,0.6-5.2-0.8-7.6c-1.4-2.4-3.8-4.3-6.6-4.6c-0.2-68.6-0.2-68.6-0.2-68.6c1.3-0.1,2.4-0.4,3.3-1
	c4.1-2.4,5.8-7.3,4.1-11.4c59-34,59-34,59-34c3,3.5,7.8,4.6,11.9,2.2c1-0.6,1.8-1.4,2.5-2.4c59.4,34.5,59.4,34.5,59.4,34.5
	c-0.9,2.4-0.7,5.6,0.7,8c2.5,4.4,8.3,5.9,12.6,3.4c4.6-2.7,6.1-8.4,3.6-12.8c-2.5-4.4-8.3-5.9-12.9-3.3c-1,0.6-1.7,1-2.3,1.6
	c-59.6-34.3-59.6-34.3-59.6-34.3c0.9-2.4,0.6-5.2-0.8-7.6c-1.4-2.4-3.9-3.9-6.4-4.4c-0.2-68.6-0.2-68.6-0.2-68.6
	c1.1-0.3,2.2-0.6,3.2-1.2c4.6-2.7,6.1-8.4,3.6-12.8c-2.7-4.6-8.4-6.2-13-3.5c-4.4,2.5-5.9,8.3-3.2,12.9c1.4,2.4,3.5,3.8,6,4.3
	c0.1,69,0.1,69,0.1,69c-0.9,0.2-1.7,0.4-2.7,0.9c-3.9,2.2-5.6,7.1-4.2,11.2c-59,34-59,34-59,34c-2.8-3.2-7.9-4.2-11.8-1.9
	c-4.4,2.5-5.9,8.3-3.4,12.6c1.4,2.4,3.6,4.1,6.2,4.5c0.2,68.6,0.2,68.6,0.2,68.6c-1.1,0.3-1.8,0.7-2.8,1.3
	c-3.9,2.2-5.7,6.9-4.4,10.9c-59,34-59,34-59,34c-2.8-3.2-7.5-4.1-11.7-1.7c-4.4,2.5-5.9,8.3-3.4,12.6c1.4,2.4,3.6,4.1,6.2,4.5
	c0.2,68.6,0.2,68.6,0.2,68.6c-1.1,0.3-2,0.5-2.9,1.1c-3.9,2.2-5.4,7-4,11c-59.2,34.2-59.2,34.2-59.2,34.2c-2.8-3.2-7.7-4.3-11.6-2.1
	c-1,0.6-1.8,1.4-2.6,2.2C109,378.2,109,378.2,109,378.2c0.6-2.3,0.6-5.2-0.8-7.6c-1.5-2.7-4.3-4-7-4.4c0-69.4,0-69.4,0-69.4
	c1,0.1,2-0.5,3.2-1.2c3.9-2.2,5.6-7.1,4.1-11.4c59-34,59-34,59-34c2.7,3.6,7.8,4.6,11.7,2.3c4.6-2.7,6.3-8.2,3.6-12.8
	c-1.4-2.4-4-4.2-6.8-4.5c0.2-68.5,0.2-68.5,0.2-68.5c0.9-0.2,2.2-0.6,3.2-1.2c4.4-2.5,5.9-8.3,3.4-12.6c-2.7-4.6-8.4-6.2-12.8-3.6
	c-1,0.6-1.8,1.4-2.4,2c-59.6-34.3-59.6-34.3-59.6-34.3c0.9-2.4,0.8-5.3-0.6-7.8c-2.5-4.4-8.3-5.9-12.9-3.3
	c-4.4,2.5-5.9,8.3-3.4,12.6c2.5,4.4,8.3,5.9,12.6,3.4c1.2-0.7,2.2-1.3,2.6-2.2C166,154,166,154,166,154c-1.1,2.6-1,5.5,0.5,8.1
	c1.3,2.2,3.7,3.7,6.3,4.2c0.1,69,0.1,69,0.1,69c-0.9,0.2-2,0.5-2.9,1.1c-3.9,2.2-5.5,6.7-4,11c-59.2,34.2-59.2,34.2-59.2,34.2
	c-3-3.5-7.7-4.3-11.6-2.1c-4.6,2.7-6.1,8.4-3.6,12.8c1.4,2.4,3.9,3.9,6.4,4.4c0,69.4,0,69.4,0,69.4c-0.9,0.2-1.6,0.6-2.6,1.2
	c-3.9,2.2-5.5,6.7-4,11c-59.2,34.2-59.2,34.2-59.2,34.2c-3-3.5-7.7-4.3-11.6-2.1c-1,0.6-1.8,1.4-2.4,2C11.5,408.6,5.5,405.1,0.2,402
	z M476.6,427.6c1.3-0.1,2.2-0.6,3.2-1.2c4.1-2.4,5.8-7.3,4.1-11.4c59-34,59-34,59-34c2.7,3.6,7.8,4.6,11.9,2.2c1-0.6,1.9-1.1,2.4-2
	l59.2,34.2c-0.9,2.4-0.6,5.2,0.8,7.6c1.4,2.4,3.6,4.1,6.4,4.4c0.2,68.6,0.2,68.6,0.2,68.6c-1.3,0.1-2.2,0.6-3.4,1.3
	c-3.9,2.2-5.5,6.7-4.1,10.8c-59,34-59,34-59,34c-3.1-3.1-7.8-3.9-11.7-1.7c-1,0.6-1.9,1.1-2.6,2.2c-59.4-34.5-59.4-34.5-59.4-34.5
	c0.9-2.4,0.8-5.3-0.6-7.8c-1.4-2.4-3.6-4.1-6.3-4.8C476.6,427.6,476.6,427.6,476.6,427.6z M470.5,410.4c-1,0.6-1.6,1.2-2.1,1.9
	c-59.7-34.6-59.7-34.6-59.7-34.6c0.9-2.4,0.6-5.2-0.7-7.4c-1.5-2.7-4-4.2-6.6-4.6c-0.2-68.6-0.2-68.6-0.2-68.6
	c1.3-0.1,2.4-0.4,3.3-1c4.1-2.4,5.7-7.5,3.9-11.7c59-34,59-34,59-34c2.7,3.6,8,4.8,12.1,2.4c1-0.6,1.8-1.4,2.5-2.4
	c59.4,34.5,59.4,34.5,59.4,34.5c-1.1,2.6-0.8,5.3,0.7,8c1.3,2.2,3.5,3.8,6,4.3l0.1,69c-0.9,0.2-2,0.5-2.7,0.9
	c-4.1,2.4-5.7,6.9-4.4,10.9c-59,34-59,34-59,34C479.4,408.9,474.4,408.2,470.5,410.4z M326.4,427.5c1.1-0.3,2.2-0.6,3.2-1.2
	c4.1-2.4,5.8-7.3,4.1-11.4c59-34,59-34,59-34c2.7,3.6,7.8,4.6,11.9,2.2c1-0.6,1.8-1.4,2.6-2.2c59.2,34.2,59.2,34.2,59.2,34.2
	c-0.7,2.7-0.7,5.6,0.7,8c1.4,2.4,3.6,4.1,6.2,4.5c-0.1,68.2-0.1,68.2-0.1,68.2c-0.9,0.2-2,0.5-2.9,1.1c-4.1,2.4-5.8,7.3-4.1,11.4
	c-59,34-59,34-59,34c-2.7-3.6-7.8-4.6-11.9-2.2c-1,0.6-1.8,1.4-2.6,2.2l-58.8-34.1c0.9-2.4,0.6-5.2-0.8-7.6
	c-1.4-2.4-3.9-3.9-6.6-4.6C326.4,427.5,326.4,427.5,326.4,427.5z M320.2,410c-1,0.6-1.8,1.4-2.5,2.4c-58.8-34.1-58.8-34.1-58.8-34.1
	c0.7-2.7,0.7-5.6-0.7-8c-1.4-2.4-3.9-3.9-6.7-4.3l-0.2-68.6c1.1-0.3,2.2-0.6,3.2-1.2c4.1-2.4,5.8-7.3,4.1-11.4c59-34,59-34,59-34
	c3,3.5,7.8,4.6,11.9,2.2c1-0.6,1.8-1.4,2.6-2.2c58.8,34.1,58.8,34.1,58.8,34.1c-0.9,2.4-0.6,5.2,0.8,7.6c1.4,2.4,3.6,4.1,6.2,4.5
	c-0.1,68.8-0.1,68.8-0.1,68.8c-0.9,0.2-1.7,0.4-2.7,0.9c-3.9,2.2-5.6,7.1-4.2,11.2c-59,34-59,34-59,34
	C329.2,408.7,324.1,407.7,320.2,410z M176.5,496.2c0.1-68.8,0.1-68.8,0.1-68.8c1,0.1,2.1-0.3,3.3-1c3.9-2.2,5.6-7.1,4.1-11.4
	c58.7-33.9,58.7-33.9,58.7-33.9c3,3.5,8.1,4.4,11.9,2.2c1-0.6,1.8-1.4,2.6-2.2c58.8,34.1,58.8,34.1,58.8,34.1
	c-0.9,2.4-0.6,5.2,0.8,7.6c1.3,2.2,3.5,3.8,6,4.3c0.3,68.9,0.3,68.9,0.3,68.9c-1.1,0.3-2,0.5-2.9,1.1c-4.1,2.4-5.6,7.1-4.1,11.4
	c-58.7,33.9-58.7,33.9-58.7,33.9c-3-3.5-8.1-4.4-11.9-2.2c-1.2,0.7-2,1.5-2.6,2.2l-59.1-34c0.9-2.4,0.8-5.3-0.6-7.8
	C181.9,498.3,179.3,496.5,176.5,496.2z"/>
<linearGradient id="SVGID_2_" gradientUnits="userSpaceOnUse" x1="1797.6244" y1="170.5849" x2="1430.613" y2="170.5849">
	<stop  offset="0" style="stop-color:#FFFFFF"/>
	<stop  offset="1" style="stop-color:#FFFFFF;stop-opacity:0"/>
</linearGradient>
<path class="st2" d="M1778.2,279.2c-0.7,0.4-1.3,0.8-1.6,1.3C1741,260,1741,260,1741,260c0.7-1.5,0.6-3.3-0.3-4.9
	c-0.8-1.3-2.2-2.2-3.7-2.5c0-41.2,0-41.2,0-41.2c0.5-0.1,1.2-0.3,1.8-0.6c2.3-1.3,3.3-4,2.4-6.6c35.3-20.4,35.3-20.4,35.3-20.4
	c1.8,2.1,4.6,2.6,6.9,1.2c2.8-1.6,3.7-5,2.2-7.6c-0.8-1.5-2.3-2.3-3.8-2.6c0-41.4,0-41.4,0-41.4c0.5-0.1,1-0.4,1.5-0.7
	c2.3-1.3,3.3-4,2.4-6.6c5.7-3.3,10.5-6,14.5-8.3v-2.1c-15.4,8.9-15.4,8.9-15.4,8.9c-1.6-2.2-4.7-2.7-7-1.4c-0.7,0.4-1.3,0.8-1.6,1.3
	c-35.3-20.3-35.3-20.3-35.3-20.3c0.4-1.6,0.5-3.2-0.4-4.6c-0.8-1.5-2.3-2.3-3.8-2.6c0-41,0-41,0-41c0.5-0.1,1.1-0.4,1.7-0.8
	c2.3-1.3,3.3-4.2,2.3-6.7c35.2-20.3,35.2-20.3,35.2-20.3c1.8,2.1,4.8,2.6,7.1,1.3c2.8-1.6,3.7-5,2.2-7.6c-0.8-1.5-2.3-2.3-3.8-2.6
	c0-7.7,0-14,0-19.1h-2c0,19.1,0,19.1,0,19.1c-0.5,0.1-1.2,0.3-1.9,0.7c-2.3,1.3-3.3,4-2.5,6.4c-35.3,20.4-35.3,20.4-35.3,20.4
	c-1.7-1.9-4.5-2.4-6.8-1.1c-0.7,0.4-1.1,0.8-1.6,1.3c-35.3-20.4-35.3-20.4-35.3-20.4c0.5-1.5,0.6-3-0.3-4.5c-1.6-2.8-5-3.7-7.8-2.1
	c-2.3,1.3-3.2,4.2-2.4,6.6c-35.2,20.3-35.2,20.3-35.2,20.3c-1.8-1.8-4.6-2.4-7-1c-0.6,0.3-1.2,0.7-1.6,1.3
	c-35.2-20.5-35.2-20.5-35.2-20.5c0.5-1.5,0.3-3.1-0.5-4.5c-1.5-2.6-4.9-3.5-7.5-2c-2.3,1.3-3.3,4.2-2.5,6.7
	c-35.2,20.3-35.2,20.3-35.2,20.3c-1.7-1.9-4.7-2.5-7-1.2c-0.6,0.3-0.9,0.7-1.3,1.1C1517,26.4,1517,26.4,1517,26.4
	c0.5-1.5,0.3-3.1-0.5-4.5s-2.2-2.4-3.7-2.7c0-7.8,0-14,0-19.1h-2c0,19.1,0,19.1,0,19.1c-0.7,0.2-1.3,0.4-1.9,0.7
	c-2.3,1.3-3.3,4.2-2.4,6.8C1471.3,47,1471.3,47,1471.3,47c-1.6-2.2-4.7-2.7-7-1.4c-0.7,0.4-1.2,0.9-1.6,1.3
	c-35.6-20.5-35.6-20.5-35.6-20.5c0.7-1.5,0.6-3.3-0.2-4.7c-1.6-2.8-5-3.7-7.8-2.1c-2.6,1.5-3.5,4.9-1.9,7.7c1.5,2.6,4.9,3.5,7.5,2
	c0.6-0.3,1.1-0.8,1.4-1.2c35.4,20.6,35.4,20.6,35.4,20.6c-0.4,1.4-0.3,3.1,0.5,4.5c0.8,1.5,2.3,2.3,3.7,2.7c0.1,41,0.1,41,0.1,41
	c-0.7,0.2-1.2,0.3-1.8,0.6c-2.3,1.3-3.2,4.2-2.5,6.7c-35.2,20.3-35.2,20.3-35.2,20.3c-1.7-1.9-4.6-2.6-6.9-1.2
	c-2.8,1.6-3.7,5-2.2,7.6c1.6,2.8,5,3.7,7.8,2.1c2.3-1.3,3.3-4.2,2.3-6.7c35.2-20.3,35.2-20.3,35.2-20.3c1.8,2.1,4.8,2.6,7.1,1.3
	c0.6-0.3,1.1-0.8,1.6-1.3c35.3,20.3,35.3,20.3,35.3,20.3c-0.5,1.5-0.5,3.2,0.4,4.6c0.8,1.5,2.3,2.3,3.9,2.8c0,40.8,0,40.8,0,40.8
	c-0.7,0.2-1.3,0.4-1.9,0.7c-2.3,1.3-3.3,4.2-2.4,6.8c-35.2,20.3-35.2,20.3-35.2,20.3c-1.6-2.2-4.7-2.7-7-1.4
	c-0.7,0.4-1.2,0.9-1.6,1.3c-35.5-20.3-35.5-20.3-35.5-20.3c0.6-1.7,0.5-3.4-0.3-4.9c-1.6-2.8-4.9-3.5-7.7-1.9
	c-2.6,1.5-3.6,4.8-2,7.5c1.5,2.6,4.9,3.5,7.5,2c0.6-0.3,1.1-0.8,1.4-1.2c35.5,20.7,35.5,20.7,35.5,20.7c-0.4,1.4-0.3,3.1,0.4,4.4
	c0.9,1.6,2.4,2.5,3.9,2.8c0.1,41,0.1,41,0.1,41c-0.7,0.2-1.3,0.4-1.9,0.7c-2.6,1.5-3.5,4.9-2,7.5c1.5,2.6,4.9,3.5,7.5,2
	c2.8-1.6,3.5-4.9,2-7.5c-0.8-1.5-2.2-2.4-3.7-2.7c0-41,0-41,0-41c0.5-0.1,1.2-0.3,1.8-0.6c2.3-1.3,3.2-4.2,2.4-6.6
	c35.2-20.3,35.2-20.3,35.2-20.3c1.8,1.8,4.7,2.5,7,1.2c0.6-0.3,0.9-0.7,1.4-1.2c35.4,20.6,35.4,20.6,35.4,20.6
	c-0.5,1.5-0.3,3.1,0.5,4.5c1.5,2.6,4.9,3.5,7.5,2c2.3-1.3,3.4-4.1,2.6-6.5c35.2-20.3,35.2-20.3,35.2-20.3c1.7,1.9,4.6,2.4,7,1
	c0.6-0.3,1.1-0.8,1.4-1.2c35.3,20.3,35.3,20.3,35.3,20.3c-0.5,1.5-0.3,3.1,0.5,4.5c0.8,1.5,2.3,2.6,3.9,2.8c0.1,41,0.1,41,0.1,41
	c-0.7,0-1.4,0.2-2,0.6c-2.5,1.4-3.5,4.3-2.4,6.8c-35.2,20.3-35.2,20.3-35.2,20.3c-1.8-2.1-4.7-2.7-7.1-1.3c-0.6,0.3-1.1,0.8-1.5,1.4
	c-35.4-20.6-35.4-20.6-35.4-20.6c0.5-1.5,0.4-3.3-0.4-4.8c-1.5-2.6-4.9-3.5-7.5-2c-2.8,1.6-3.7,5-2.2,7.6c1.5,2.6,4.9,3.5,7.7,1.9
	c0.6-0.3,1-0.6,1.4-1c35.6,20.5,35.6,20.5,35.6,20.5c-0.5,1.5-0.3,3.1,0.5,4.5c0.8,1.5,2.3,2.3,3.8,2.6c0.1,41,0.1,41,0.1,41
	c-0.7,0.2-1.3,0.4-1.9,0.7c-2.8,1.6-3.7,5-2.2,7.6c1.6,2.8,5,3.7,7.8,2.1c2.6-1.5,3.5-4.9,1.9-7.7c-0.8-1.5-2.1-2.3-3.6-2.6
	c0-41.2,0-41.2,0-41.2c0.5-0.1,1-0.2,1.6-0.5c2.3-1.3,3.3-4.2,2.5-6.7c35.2-20.3,35.2-20.3,35.2-20.3c1.7,1.9,4.7,2.5,7,1.2
	c2.6-1.5,3.5-4.9,2-7.5c-0.8-1.5-2.2-2.4-3.7-2.7c-0.1-41-0.1-41-0.1-41c0.7-0.2,1.1-0.4,1.7-0.8c2.3-1.3,3.4-4.1,2.6-6.5
	c35.2-20.3,35.2-20.3,35.2-20.3c1.7,1.9,4.5,2.4,7,1c2.6-1.5,3.5-4.9,2-7.5c-0.8-1.5-2.2-2.4-3.7-2.7c-0.1-41-0.1-41-0.1-41
	c0.7-0.2,1.2-0.3,1.8-0.6c2.3-1.3,3.2-4.2,2.4-6.6c35.3-20.4,35.3-20.4,35.3-20.4c1.7,1.9,4.6,2.6,6.9,1.2c0.6-0.3,1.1-0.8,1.6-1.3
	c35.1,20.4,35.1,20.4,35.1,20.4c-0.4,1.4-0.3,3.1,0.5,4.5c0.9,1.6,2.5,2.4,4.2,2.6c0,41.4,0,41.4,0,41.4c-0.6,0-1.2,0.3-1.9,0.7
	c-2.3,1.3-3.3,4.2-2.4,6.8c-35.2,20.3-35.2,20.3-35.2,20.3c-1.6-2.2-4.7-2.7-7-1.4c-2.8,1.6-3.7,4.9-2.2,7.6
	c0.8,1.5,2.4,2.5,4.1,2.7c-0.1,40.9-0.1,40.9-0.1,40.9c-0.5,0.1-1.3,0.4-1.9,0.7c-2.6,1.5-3.5,4.9-2,7.5c1.6,2.8,5,3.7,7.6,2.2
	c0.6-0.3,1.1-0.8,1.4-1.2c35.6,20.5,35.6,20.5,35.6,20.5c-0.5,1.5-0.5,3.2,0.4,4.6c1.5,2.6,4.9,3.5,7.7,1.9c2.6-1.5,3.5-4.9,2-7.5
	S1780.8,277.7,1778.2,279.2z M1509,123.3c-0.6,0.3-1.2,0.7-1.4,1.2l-35.3-20.4c0.5-1.5,0.3-3.1-0.5-4.5c-0.8-1.5-2.2-2.4-3.8-2.6
	c-0.1-41-0.1-41-0.1-41c0.7,0,1.3-0.4,2-0.8c2.3-1.3,3.3-4,2.5-6.4c35.2-20.3,35.2-20.3,35.2-20.3c1.8,1.8,4.6,2.4,7,1
	c0.6-0.3,1.2-0.7,1.6-1.3c35.4,20.6,35.4,20.6,35.4,20.6c-0.5,1.5-0.5,3.2,0.4,4.6c0.8,1.5,2.2,2.4,3.8,2.9
	c0.1,40.6,0.1,40.6,0.1,40.6c-0.7,0-1.3,0.4-1.9,0.7c-2.5,1.4-3.5,4.3-2.4,6.8c-35.2,20.3-35.2,20.3-35.2,20.3
	C1514.5,122.4,1511.5,121.9,1509,123.3z M1598.6,175.2c-2.5,1.4-3.4,4.5-2.3,7c-35.2,20.3-35.2,20.3-35.2,20.3
	c-1.6-2.2-4.7-2.9-7.2-1.4c-0.6,0.3-1.1,0.8-1.5,1.4c-35.4-20.6-35.4-20.6-35.4-20.6c0.7-1.5,0.5-3.2-0.4-4.8
	c-0.8-1.3-2.1-2.3-3.6-2.6l0-41.2c0.5-0.1,1.2-0.3,1.6-0.5c2.5-1.4,3.4-4.1,2.6-6.5c35.2-20.3,35.2-20.3,35.2-20.3
	c1.7,1.9,4.6,2.4,7,1c0.6-0.3,0.9-0.7,1.3-1.1c35.7,20.6,35.7,20.6,35.7,20.6c-0.5,1.5-0.3,3.1,0.4,4.4c0.9,1.6,2.4,2.5,3.9,2.8
	c0.1,41,0.1,41,0.1,41C1599.9,174.7,1599.2,174.9,1598.6,175.2z M1598.6,123.4c-0.6,0.3-1.1,0.8-1.6,1.3
	c-35.3-20.4-35.3-20.4-35.3-20.4c0.4-1.6,0.4-3.3-0.4-4.8c-0.8-1.5-2.2-2.4-3.7-2.7c0.1-40.7,0.1-40.7,0.1-40.7
	c0.5-0.1,1.2-0.3,1.8-0.6c2.5-1.4,3.5-4.3,2.4-6.8c35.2-20.3,35.2-20.3,35.2-20.3c1.6,2.2,4.7,2.7,7.1,1.3c0.6-0.3,1.1-0.8,1.6-1.3
	l35.1,20.4c-0.5,1.5-0.3,3.1,0.5,4.5c0.8,1.5,2.3,2.3,3.9,2.8c0,40.8,0,40.8,0,40.8c-0.7,0.2-1.3,0.4-1.9,0.7
	c-2.5,1.4-3.5,4.3-2.4,6.8c-35.2,20.3-35.2,20.3-35.2,20.3C1604.1,122.5,1601.1,122,1598.6,123.4z M1688.2,175.2
	c-2.5,1.4-3.5,4.3-2.4,6.8c-35.2,20.3-35.2,20.3-35.2,20.3c-1.8-2.1-4.7-2.7-7.1-1.3c-0.6,0.3-1.1,0.8-1.6,1.3
	c-35.1-20.4-35.1-20.4-35.1-20.4c0.5-1.5,0.3-3.1-0.5-4.5c-0.8-1.5-2.2-2.4-3.7-2.7c0-41,0-41,0-41c0.5-0.1,1-0.2,1.6-0.5
	c2.3-1.3,3.3-4.2,2.5-6.7c35.2-20.3,35.2-20.3,35.2-20.3c1.7,1.9,4.7,2.5,7,1.2c0.6-0.3,1.1-0.8,1.5-1.4
	c35.1,20.4,35.1,20.4,35.1,20.4c-0.4,1.6-0.4,3.3,0.4,4.8c0.8,1.5,2.3,2.3,4,2.5l0.1,41C1689.4,174.7,1688.8,174.8,1688.2,175.2z
	 M1734.7,96.9c-0.6,0-1.3,0.1-2,0.6c-2.3,1.3-3.3,4.2-2.4,6.8c-35,20.2-35,20.2-35,20.2c-1.8-2.1-4.8-2.6-7.1-1.3
	c-0.6,0.3-1.1,0.8-1.6,1.3c-35.1-20.4-35.1-20.4-35.1-20.4c0.5-1.5,0.3-3.1-0.5-4.5c-0.8-1.3-2.1-2.3-3.6-2.6
	c-0.2-41.1-0.2-41.1-0.2-41.1c0.7-0.2,1.2-0.3,1.8-0.6c2.5-1.4,3.3-4.2,2.4-6.8c35-20.2,35-20.2,35-20.2c1.8,2.1,4.8,2.6,7.1,1.3
	c0.7-0.4,1.2-0.9,1.6-1.3l35.3,20.3c-0.5,1.5-0.5,3.2,0.4,4.6c0.8,1.5,2.4,2.5,4.1,2.7C1734.7,96.9,1734.7,96.9,1734.7,96.9z"/>
</svg>
